<svg width="960" height="560" viewBox="0 0 960 560" fill="none" xmlns="http://www.w3.org/2000/svg">
  <rect width="960" height="560" rx="40" fill="#F6ECE4"/>
  <rect x="32" y="32" width="416" height="496" rx="28" fill="#E3CEC0"/>
  <rect x="512" y="32" width="416" height="496" rx="28" fill="#F5D8C8"/>
  <circle cx="240" cy="214" r="84" fill="#C99782"/>
  <circle cx="720" cy="214" r="84" fill="#D8A38F"/>
  <path d="M166 382C176 298 214 256 242 256C270 256 308 298 318 382H166Z" fill="#8C665A"/>
  <path d="M642 382C654 292 692 252 720 252C748 252 786 292 798 382H642Z" fill="#9C6A5B"/>
  <path d="M176 418C200 396 220 388 240 388C260 388 282 396 306 418" stroke="#654841" stroke-width="10" stroke-linecap="round"/>
  <path d="M654 418C676 396 698 388 720 388C742 388 764 396 786 418" stroke="#654841" stroke-width="10" stroke-linecap="round"/>
  <text x="78" y="88" fill="#6C4A3F" font-family="Manrope, sans-serif" font-size="28" font-weight="700">До</text>
  <text x="560" y="88" fill="#6C4A3F" font-family="Manrope, sans-serif" font-size="28" font-weight="700">После</text>
</svg>
